<svg width="183" height="144" viewBox="0 0 183 144" fill="none" xmlns="http://www.w3.org/2000/svg">
<path opacity="0.05" d="M175.372 74.4331C169.645 73.3517 167.615 76.4928 159.276 80.7281C159.384 78.8209 159.319 76.908 159.082 75.0124C158.966 74.1112 158.837 73.2487 158.682 72.4377C158.682 72.2704 158.617 72.1159 158.591 71.9614H158.695C158.992 71.8132 159.229 71.5674 159.366 71.2656C159.503 70.9637 159.531 70.6241 159.446 70.3039C159.361 69.9837 159.168 69.7023 158.9 69.5071C158.631 69.312 158.303 69.2149 157.971 69.2323C157.976 69.1982 157.976 69.1634 157.971 69.1293C157.854 68.6787 157.725 68.2153 157.596 67.842C157.466 67.4686 157.402 67.2627 157.311 66.9795C157.221 66.6963 157.027 66.1684 156.885 65.7822L156.561 64.9713C156.406 64.6108 156.238 64.2503 156.083 63.9028C155.928 63.5552 155.85 63.4007 155.721 63.1561C155.592 62.9115 155.372 62.4867 155.191 62.1649C155.01 61.843 154.945 61.7143 154.816 61.5084C154.687 61.3024 154.48 60.9677 154.299 60.7102C154.299 60.7102 154.377 60.7102 154.402 60.6201C154.577 60.3265 154.628 59.9757 154.543 59.645C154.458 59.3143 154.245 59.0306 153.95 58.8565C153.779 58.7314 153.584 58.6437 153.377 58.5993C153.169 58.555 152.955 58.5549 152.748 58.599C152.411 58.1999 152.062 57.8395 151.726 57.479L151.455 57.2344C151.17 56.9512 150.873 56.6809 150.576 56.4234L150.162 56.0887C149.916 55.8827 149.658 55.6768 149.399 55.4965L149.024 55.2391C149.8 43.1898 148.585 32.1574 154.105 28.6172C160.854 24.2918 163.543 28.4885 165.081 25.3346C166.62 22.1806 156.031 18.0869 145.921 29.0034C140.285 35.0796 142.896 44.3869 142.289 52.3941C136.949 51.3127 131.946 52.703 130.136 54.3637C129.317 54.9958 128.65 55.8026 128.185 56.7248C127.719 57.647 127.467 58.6613 127.447 59.6932C127.45 59.8857 127.508 60.0732 127.614 60.2342C127.72 60.3951 127.87 60.5227 128.046 60.6023C128.222 60.6818 128.417 60.71 128.609 60.6835C128.8 60.657 128.98 60.577 129.128 60.4527C130.732 59.2273 132.641 58.4599 134.65 58.2331C136.658 58.0063 138.691 58.3286 140.53 59.1654C138.733 62.5253 135.359 65.2158 128.895 66.7091C117.376 69.3739 111.028 65.7694 107.537 61.4182C107.033 58.9931 106.734 56.5299 106.645 54.0547V53.0506C106.451 37.6028 102.922 -3.59161 69.8255 5.12357C33.0704 14.7141 50.097 54.6727 53.6523 62.1391C53.9238 62.7056 54.1177 63.0789 54.2082 63.2591C55.9664 67.1211 60.5301 80.2132 44.2146 82.8522C35.2111 84.3288 26.747 88.1081 19.6508 93.8201C14.0012 85.7486 11.8939 74.5103 15.0225 68.6015C21.1635 56.771 26.9812 55.6381 33.1221 54.8143C39.2631 53.9904 26.7614 43.5116 14.0917 55.2906C2.66307 65.9239 -0.0131121 84.6673 12.1266 102.239C7.53701 109.371 5.66243 118.382 8.92036 129.273C9.692 131.938 11.0675 134.391 12.941 136.443C13.756 137.36 14.7116 138.142 15.7723 138.761C15.893 138.826 16.0271 138.862 16.1641 138.867C16.3012 138.872 16.4375 138.845 16.5626 138.789C16.6877 138.733 16.7981 138.649 16.8852 138.544C16.9724 138.438 17.034 138.314 17.0652 138.181L17.1815 138.349C17.2553 138.221 17.2941 138.077 17.2941 137.93C17.2941 137.783 17.2553 137.639 17.1815 137.512C15.9399 134.959 15.2863 132.161 15.2682 129.325C15.5624 129.189 15.7948 128.949 15.9193 128.65C16.0439 128.352 16.0514 128.019 15.9404 127.715C15.8926 127.525 15.8074 127.347 15.6898 127.19C15.5722 127.033 15.4245 126.901 15.2552 126.801C15.2552 126.158 15.2552 125.514 15.3457 124.832C15.4621 123.326 15.6431 121.768 15.9146 120.185C16.2337 120.209 16.5505 120.114 16.8036 119.919C17.0568 119.724 17.2283 119.443 17.285 119.129C17.3453 118.971 17.3737 118.803 17.3686 118.634C17.3636 118.465 17.3251 118.298 17.2555 118.144C17.1859 117.99 17.0864 117.851 16.9628 117.735C16.8392 117.619 16.6939 117.528 16.5351 117.468H16.4575C16.8507 115.828 17.3517 114.216 17.9572 112.641C18.2806 112.672 18.6038 112.58 18.8625 112.385C19.1212 112.189 19.2965 111.904 19.3535 111.585C19.4171 111.369 19.4316 111.141 19.3958 110.918C19.36 110.696 19.2749 110.484 19.1466 110.298C25.2488 115.318 32.9928 116.194 40.6464 114.52C41.1124 116.585 41.7215 118.615 42.4693 120.596C42.4693 120.596 45.1325 125.244 48.2482 126.891C48.3491 126.949 48.4604 126.985 48.5756 126.999C48.6908 127.013 48.8076 127.005 48.9194 126.974C49.0312 126.942 49.1357 126.89 49.2268 126.818C49.318 126.747 49.3941 126.658 49.4506 126.557C46.7093 122.674 45.0256 118.15 44.5637 113.426C50.6559 111.359 56.2886 108.138 61.1507 103.939C60.7126 105.476 60.3587 107.036 60.0905 108.612L59.9354 109.526H59.7415C59.5816 109.584 59.4349 109.674 59.3099 109.789C59.1849 109.905 59.0841 110.044 59.0132 110.198C58.9423 110.352 58.9028 110.519 58.8968 110.689C58.8909 110.858 58.9188 111.027 58.9787 111.186C59.0244 111.375 59.1073 111.553 59.2227 111.71C59.3381 111.867 59.4837 112 59.651 112.1C59.5863 113.04 59.5476 114.018 59.5476 114.997C59.4949 117.332 59.6899 119.666 60.1293 121.961H59.9483C59.6509 122.109 59.4137 122.355 59.2768 122.657C59.1399 122.959 59.1115 123.298 59.1965 123.619C59.2815 123.939 59.4745 124.22 59.7433 124.415C60.0121 124.61 60.3401 124.708 60.6723 124.69C61.183 126.943 61.8881 129.149 62.7796 131.281C63.2642 132.385 63.8124 133.459 64.4215 134.5C65.3047 135.988 66.3685 137.363 67.589 138.593C67.3693 138.846 67.2573 139.175 67.2766 139.509C67.2959 139.843 67.445 140.156 67.6924 140.383C67.7923 140.52 67.9185 140.636 68.0636 140.725C68.2088 140.813 68.3701 140.872 68.5383 140.899C68.7064 140.925 68.8782 140.918 69.0436 140.878C69.2091 140.838 69.3649 140.766 69.5023 140.666C69.5856 140.586 69.6516 140.489 69.6962 140.383C69.9807 140.589 70.278 140.807 70.5883 140.988C73.1516 142.566 76.1211 143.367 79.1339 143.292C79.2533 143.468 79.4081 143.617 79.5883 143.73C79.7686 143.843 79.9704 143.917 80.1811 143.949C80.4994 144.021 80.8336 143.972 81.1166 143.809C81.3996 143.647 81.6104 143.384 81.7066 143.073C83.0265 142.858 84.3245 142.527 85.5851 142.082C86.7548 141.665 87.8914 141.162 88.9853 140.576C89.1981 140.736 89.4523 140.831 89.7181 140.852C89.9838 140.872 90.2499 140.817 90.485 140.692C90.777 140.584 91.0202 140.375 91.1699 140.103C91.3195 139.831 91.3655 139.514 91.2994 139.211C91.8036 138.876 92.3079 138.529 92.7991 138.156C93.536 137.602 94.26 136.997 94.9452 136.379C95.7176 135.73 96.4274 135.01 97.0655 134.229C97.3737 134.316 97.7023 134.298 97.9989 134.177C98.2956 134.057 98.5432 133.841 98.7023 133.564C98.8614 133.287 98.9229 132.965 98.8769 132.65C98.831 132.334 98.6803 132.042 98.4488 131.822C99.9421 128.648 100.324 125.068 99.5348 121.652C99.7009 121.486 99.8241 121.282 99.8939 121.057C99.9637 120.833 99.978 120.596 99.9355 120.365C99.9079 120.071 99.7798 119.796 99.5727 119.585C99.3656 119.374 99.0921 119.24 98.7978 119.206C97.8655 116.65 96.2139 114.416 94.0402 112.77C93.9845 112.55 93.8784 112.346 93.7304 112.174C93.5824 112.002 93.3964 111.867 93.187 111.778C92.8207 111.639 92.4155 111.639 92.0493 111.778C90.6499 111.25 89.1048 111.25 87.7054 111.778C86.2217 112.28 84.8323 113.024 83.5942 113.98C83.0795 114.32 82.6616 114.787 82.3807 115.334C82.0999 115.882 81.9657 116.493 81.9911 117.108C82.0194 117.35 82.0987 117.584 82.2238 117.793C82.3488 118.003 82.5168 118.184 82.7168 118.325C82.9168 118.466 83.1443 118.563 83.3845 118.611C83.6248 118.659 83.8724 118.655 84.1113 118.601C92.6957 116.889 92.6698 128.269 86.4513 132.633C79.9225 137.216 63.3614 128.449 75.4364 107.131C80.3505 98.2949 83.5355 88.6101 84.8224 78.5911C89.3473 88.5936 96.7423 99.9993 107.266 106.191L107.589 106.359C108.08 106.655 108.585 106.925 109.102 107.183L109.696 107.492C110.382 107.826 111.093 108.148 111.817 108.444C113.63 109.18 115.514 109.728 117.44 110.079C117.397 110.377 117.46 110.68 117.619 110.937C117.777 111.193 118.02 111.386 118.307 111.482C118.455 111.564 118.618 111.616 118.787 111.636C118.956 111.655 119.127 111.641 119.29 111.594C119.454 111.547 119.606 111.469 119.739 111.364C119.872 111.259 119.983 111.128 120.065 110.98C120.131 110.817 120.154 110.64 120.13 110.465L121.694 110.607C122.392 110.607 123.077 110.607 123.775 110.607C125.889 110.604 127.999 110.427 130.084 110.079L130.408 110.015C130.395 110.096 130.395 110.178 130.408 110.259C130.477 110.415 130.577 110.554 130.702 110.671C130.826 110.787 130.973 110.878 131.132 110.938C131.292 110.998 131.463 111.026 131.633 111.02C131.804 111.014 131.972 110.974 132.127 110.903C132.445 110.826 132.722 110.632 132.902 110.359C133.082 110.087 133.152 109.757 133.097 109.435C135.553 108.827 137.947 107.991 140.246 106.938C140.444 107.107 140.685 107.219 140.942 107.263C141.2 107.306 141.464 107.278 141.707 107.183C142.025 107.103 142.301 106.906 142.479 106.631C142.657 106.356 142.723 106.024 142.664 105.702C143.142 105.445 143.62 105.174 144.086 104.891C145.309 104.16 146.483 103.352 147.602 102.471C148.787 101.546 149.906 100.539 150.951 99.4586C151.233 99.5152 151.526 99.4763 151.784 99.348C152.042 99.2198 152.249 99.0095 152.373 98.7506C152.565 98.4248 152.634 98.0412 152.567 97.6693C154.476 95.3922 156.028 92.84 157.169 90.0998C164.732 85.7873 170.007 80.9212 172.075 80.2775C177.247 78.6684 180.259 86.1606 182.159 84.3455C184.06 82.5303 183.039 75.8749 175.372 74.4331ZM147.344 65.8595C147.908 66.8932 148.4 67.9642 148.817 69.0649C149.773 71.6789 150.196 74.4564 150.06 77.2349C149.925 80.0134 149.234 82.7371 148.029 85.2466C134.415 87.7054 125.288 85.3238 119.147 80.9083C130.718 81.449 143.827 74.6906 147.344 65.8595ZM26.3994 100.501C27.0217 99.9598 27.6734 99.4527 28.3516 98.9823C28.5691 99.2214 28.8615 99.3802 29.1811 99.4328C29.5008 99.4854 29.8289 99.4288 30.1121 99.2721C30.3953 99.1155 30.6169 98.868 30.7409 98.5699C30.8649 98.2719 30.884 97.9408 30.795 97.6306C30.795 97.6306 30.795 97.6306 30.7174 97.5405C32.4345 96.6137 34.2298 95.8384 36.0827 95.2234L36.6903 95.0302C36.8361 95.209 37.022 95.351 37.2332 95.445C37.4443 95.5389 37.6746 95.582 37.9056 95.5709C38.0754 95.5814 38.2457 95.5583 38.4066 95.5031C38.5674 95.4479 38.7158 95.3616 38.8431 95.2492C38.9704 95.1368 39.0742 95.0004 39.1485 94.848C39.2228 94.6955 39.2661 94.53 39.276 94.3608C40.4912 94.0648 41.6936 93.8202 42.883 93.6399C41.462 96.4981 40.5188 99.5679 40.0905 102.728C37.7824 103.365 35.3631 103.496 32.9995 103.111C30.6358 102.727 28.384 101.836 26.3994 100.501ZM46.6968 99.6775C47.6546 97.3229 48.873 95.0819 50.3297 92.9963C51.3489 93.0047 52.3677 92.9531 53.3807 92.8418C53.4901 93.0771 53.6772 93.2679 53.9108 93.3825C51.8676 95.8591 49.4307 97.9856 46.6968 99.6775ZM98.229 75.8877L98.6298 75.5402C101.671 81.5052 106.265 86.547 111.933 90.1384C119.313 94.9645 128.076 97.2523 136.885 96.6523C131.232 99.2586 124.818 99.7165 118.85 97.9396C107.589 94.9916 101.5 84.8733 98.229 75.8877Z" fill="black"/>
<path d="M51.7648 55.2004C51.7648 55.2004 65.0422 82.1699 42.0815 96.073C19.1209 109.976 4.7446 76.6086 10.8855 64.7138C17.0265 52.8189 22.8442 51.7504 28.9851 50.9266C35.1261 50.1027 22.6374 39.6239 9.96764 51.4157C-2.70209 63.2076 -4.6284 84.8861 12.4757 104.016C29.5799 123.145 64.1889 101.222 67.5373 84.6287C70.8857 68.0351 65.7532 51.8792 65.7532 51.8792L51.7648 55.2004Z" fill="#F83E58"/>
<path d="M99.1213 47.6954C99.1213 47.6954 101.216 68.2153 124.655 62.7957C148.094 57.376 131.558 35.9807 141.681 25.0642C151.804 14.1477 162.366 18.2543 160.854 21.4082C159.341 24.5622 156.626 20.3526 149.878 24.678C143.129 29.0034 146.452 44.5157 143.892 59.4357C141.332 74.3558 110.602 85.0277 99.5608 69.4254C88.5201 53.823 90.7308 43.6017 90.7308 43.6017L99.1213 47.6954Z" fill="#F83E58"/>
<path d="M102.392 49.1243C102.392 49.1243 101.203 89.4947 144.448 81.3073C162.547 75.1668 163.582 69.155 171.184 70.5968C178.785 72.0386 179.897 78.5525 177.997 80.3676C176.096 82.1827 173.045 74.6905 167.926 76.2996C162.806 77.9088 138.191 105.213 107.68 86.2893C89.425 74.9608 88.4812 50.5274 88.4812 50.5274L102.392 49.1243Z" fill="#F56479"/>
<path d="M49.4635 58.2771C49.4635 58.2771 59.2632 75.8748 40.0259 78.9902C21.4867 81.9896 -3.56835 97.6435 4.73161 125.334C5.51045 127.999 6.89008 130.451 8.76527 132.504C9.57415 133.427 10.5309 134.21 11.5966 134.821C11.7621 134.917 11.9544 134.956 12.1443 134.933C12.3342 134.91 12.5112 134.825 12.6487 134.693C12.7861 134.56 12.8764 134.387 12.9059 134.199C12.9353 134.01 12.9023 133.818 12.8118 133.65C11.7517 131.667 10.4718 127.793 10.976 120.957C11.5448 113.413 13.7426 104.479 21.1893 97.3345C27.8216 90.9751 39.0304 88.9541 46.1927 89.0313C52.217 89.2089 58.0692 87.0167 62.4823 82.9294C69.6317 76.4928 66.9555 60.9419 66.9555 60.9419L49.4635 58.2771Z" fill="#F56479"/>
<path d="M90.3947 56.4362C90.3947 56.4362 93.1355 88.3489 114.596 94.1033C136.057 99.8576 150.382 80.1744 144.629 65.1771C139.458 51.8275 128.882 53.1664 124.887 56.5649C124.742 56.69 124.564 56.7711 124.374 56.7988C124.184 56.8265 123.99 56.7995 123.814 56.7211C123.639 56.6426 123.49 56.516 123.385 56.3561C123.279 56.1961 123.222 56.0095 123.22 55.8183C123.229 54.7771 123.476 53.7518 123.942 52.8196C124.408 51.8874 125.08 51.0728 125.909 50.4373C130.214 46.5753 151.481 44.1165 154.894 71.1246C158.307 98.1326 127.344 112.319 107.654 104.389C87.9642 96.4591 77.7637 70.0818 75.5789 59.6416L90.3947 56.4362Z" fill="#F56479"/>
<path d="M81.3191 59.5645C82.0691 74.7187 78.6018 89.7848 71.2997 103.102C59.2118 124.42 75.7729 133.187 82.3017 128.617C88.5331 124.24 88.559 112.873 79.9746 114.572C79.735 114.626 79.4866 114.629 79.2456 114.582C79.0046 114.534 78.7762 114.437 78.5752 114.296C78.3742 114.156 78.2051 113.975 78.0787 113.765C77.9523 113.555 77.8715 113.321 77.8414 113.079C77.7121 111.65 78.6171 109.603 83.5557 107.762C92.2823 104.505 101.849 122.515 90.8602 132.569C79.8712 142.623 61.1251 144.438 56.1736 119.258C51.222 94.0776 71.4936 82.4531 65.3915 63.0531L81.3191 59.5645Z" fill="#F56479"/>
<path d="M50.0717 59.5644C50.0717 59.5644 25.0684 11.9334 65.5856 1.23576C106.103 -9.4619 102.315 54.7884 102.315 54.7884C102.315 54.7884 102.082 70.4938 80.6988 74.2399C59.3154 77.986 50.0717 59.5644 50.0717 59.5644Z" fill="#F56479"/>
<path d="M81.9525 46.4852C81.9525 46.4852 91.7522 64.0829 72.5149 67.1983C53.2776 70.3136 27.0202 87.0488 38.3066 116.773C38.3066 116.773 40.9698 121.42 44.0855 123.081C44.2907 123.19 44.5301 123.215 44.7539 123.153C44.9778 123.091 45.169 122.945 45.2879 122.746C34.7125 107.517 42.2627 89.0827 54.6609 80.5478C67.0591 72.0128 89.8388 74.7162 89.9163 74.7291C91.749 73.7734 93.4484 72.5833 94.9713 71.189C102.121 64.7523 99.4445 49.2015 99.4445 49.2015L81.9525 46.4852Z" fill="#F56479"/>
<path d="M22.3793 92.3011C9.98103 100.836 2.43089 119.27 12.9933 134.5C13.0695 134.371 13.1097 134.224 13.1097 134.075C13.1097 133.925 13.0695 133.779 12.9933 133.65C11.9332 131.68 10.6662 127.805 11.1704 120.97C11.7263 113.426 13.9242 104.492 21.3709 97.3474C28.0031 90.9108 39.2119 88.954 46.3742 89.0441C50.281 89.14 54.1491 88.2545 57.6218 86.4695C57.5571 86.4695 34.8163 83.7404 22.3793 92.3011Z" fill="#FF93D5"/>
<path d="M70.394 104.054L73.0702 92.4041C71.672 96.1547 70.7723 100.071 70.394 104.054Z" fill="#F56479"/>
<path d="M90.8601 132.53C101.849 122.476 92.2822 104.466 83.5556 107.723C82.1195 108.315 80.7466 109.048 79.4573 109.912C79.4573 109.912 77.2725 112.422 83.0514 112.486C89.6707 112.988 91.0023 118.537 90.2913 124.613C89.5802 130.689 78.798 139.7 67.3047 130.663C55.8115 121.626 58.1903 96.3046 58.1903 96.2918C56.8704 100.043 55.9728 103.929 55.5141 107.878C55.1609 111.644 55.3832 115.442 56.1735 119.142C61.1638 144.399 79.8581 142.584 90.8601 132.53Z" fill="#FF93D5"/>
<path d="M139.367 53.6942C140.729 54.4154 142.026 55.2509 143.246 56.1916C144.545 57.4486 145.574 58.9552 146.271 60.62C148.784 66.2934 149.597 72.5688 148.613 78.6916C147.629 84.8143 144.89 90.5237 140.725 95.1331C139.551 96.4357 138.218 97.5862 136.756 98.5574C134.885 99.7295 132.856 100.631 130.731 101.235C121.81 103.99 112.308 103.642 103.026 102.123C104.488 102.991 106.013 103.748 107.589 104.389C127.344 112.345 158.307 98.1841 154.894 71.1503C152.981 56.0628 145.508 50.1669 138.527 48.5706C136.626 48.1201 130.227 49.5232 139.367 53.6942Z" fill="#FF93D5"/>
<path d="M143.401 50.27C143.267 50.5839 143.013 50.8321 142.696 50.96C142.378 51.0879 142.023 51.0852 141.707 50.9523C141.533 50.932 141.365 50.8735 141.216 50.7811C141.067 50.6886 140.941 50.5644 140.846 50.4175C140.751 50.2706 140.689 50.1045 140.666 49.9312C140.643 49.7579 140.659 49.5817 140.713 49.4153C140.766 49.2488 140.856 49.0961 140.976 48.9683C141.095 48.8404 141.242 48.7405 141.405 48.6758C141.568 48.6111 141.743 48.5831 141.919 48.5939C142.094 48.6046 142.265 48.6539 142.418 48.7381C142.752 48.812 143.043 49.0147 143.228 49.3019C143.412 49.589 143.474 49.9372 143.401 50.27Z" fill="#F06EBD"/>
<path d="M138.888 52.0851C138.73 52.3812 138.473 52.6124 138.161 52.7384C137.848 52.8644 137.502 52.8771 137.181 52.7743C136.861 52.6715 136.587 52.4597 136.407 52.176C136.228 51.8924 136.154 51.5549 136.199 51.2226C136.267 51.0667 136.364 50.9257 136.487 50.8076C136.609 50.6894 136.754 50.5966 136.913 50.5344C137.071 50.4722 137.241 50.4418 137.411 50.4451C137.582 50.4483 137.75 50.485 137.906 50.5532C138.24 50.6271 138.531 50.8299 138.715 51.117C138.899 51.4042 138.961 51.7523 138.888 52.0851Z" fill="#F06EBD"/>
<path d="M144.719 54.4152C144.493 54.671 144.174 54.8269 143.832 54.8486C143.49 54.8703 143.154 54.7561 142.896 54.5311C142.741 54.3677 142.635 54.1636 142.592 53.9426C142.549 53.7216 142.569 53.4929 142.652 53.2833C142.735 53.0737 142.876 52.8919 143.058 52.7592C143.241 52.6265 143.458 52.5484 143.683 52.534C143.909 52.5197 144.134 52.5697 144.332 52.6782C144.53 52.7867 144.693 52.9492 144.802 53.1466C144.911 53.344 144.961 53.5683 144.946 53.793C144.931 54.0176 144.853 54.2335 144.719 54.4152Z" fill="#F06EBD"/>
<path d="M150.718 64.2503C150.45 64.3813 150.148 64.4265 149.853 64.3797C149.558 64.3329 149.284 64.1965 149.07 63.9891C148.856 63.7817 148.712 63.5134 148.657 63.221C148.602 62.9287 148.639 62.6266 148.763 62.3562C148.888 62.0857 149.093 61.8601 149.351 61.7103C149.609 61.5605 149.907 61.4938 150.205 61.5194C150.502 61.5449 150.785 61.6615 151.013 61.8531C151.242 62.0447 151.405 62.302 151.481 62.5896C151.541 62.7485 151.569 62.9176 151.563 63.0872C151.557 63.2568 151.517 63.4236 151.446 63.5779C151.375 63.7323 151.275 63.8711 151.15 63.9865C151.025 64.1019 150.878 64.1916 150.718 64.2503Z" fill="#F06EBD"/>
<path d="M154.506 68.0608C154.24 68.1883 153.941 68.231 153.65 68.1832C153.359 68.1354 153.09 67.9993 152.879 67.7936C152.668 67.5879 152.526 67.3225 152.473 67.0336C152.419 66.7446 152.456 66.4462 152.579 66.179C152.701 65.9117 152.904 65.6887 153.159 65.5402C153.413 65.3917 153.708 65.325 154.002 65.3492C154.296 65.3734 154.575 65.4873 154.802 65.6753C155.029 65.8634 155.192 66.1165 155.269 66.4001C155.329 66.559 155.357 66.7281 155.351 66.8977C155.345 67.0674 155.305 67.2341 155.235 67.3885C155.164 67.5428 155.063 67.6817 154.938 67.797C154.813 67.9124 154.666 68.0021 154.506 68.0608Z" fill="#F06EBD"/>
<path d="M150.628 71.2791C150.362 71.4066 150.063 71.4493 149.772 71.4015C149.481 71.3537 149.211 71.2177 149.001 71.0119C148.79 70.8062 148.648 70.5408 148.594 70.2519C148.541 69.9629 148.578 69.6645 148.7 69.3973C148.823 69.1301 149.026 68.907 149.28 68.7585C149.535 68.6101 149.829 68.5433 150.123 68.5675C150.418 68.5917 150.697 68.7056 150.924 68.8936C151.151 69.0817 151.314 69.3348 151.391 69.6185C151.451 69.7773 151.478 69.9465 151.472 70.1161C151.467 70.2857 151.427 70.4525 151.356 70.6068C151.285 70.7611 151.184 70.9 151.059 71.0154C150.934 71.1308 150.788 71.2204 150.628 71.2791Z" fill="#F06EBD"/>
<path d="M153.304 75.7461C153.01 75.7739 152.714 75.7107 152.457 75.565C152.201 75.4194 151.995 75.1984 151.87 74.9323C151.744 74.6661 151.703 74.3678 151.754 74.078C151.805 73.7882 151.944 73.5211 152.153 73.3131C152.362 73.1051 152.63 72.9664 152.921 72.9159C153.212 72.8653 153.512 72.9055 153.779 73.0308C154.047 73.1561 154.268 73.3605 154.415 73.616C154.561 73.8716 154.625 74.1659 154.597 74.4588C154.597 74.8002 154.46 75.1276 154.218 75.369C153.975 75.6104 153.647 75.7461 153.304 75.7461Z" fill="#F06EBD"/>
<path d="M152.257 86.1735C151.962 86.1528 151.681 86.042 151.452 85.8563C151.222 85.6705 151.056 85.4188 150.976 85.1356C150.896 84.8523 150.906 84.5513 151.004 84.2737C151.102 83.9961 151.284 83.7554 151.524 83.5846C151.765 83.4137 152.053 83.321 152.348 83.3191C152.644 83.3172 152.933 83.4062 153.175 83.574C153.418 83.7418 153.603 83.9801 153.705 84.2564C153.807 84.5327 153.82 84.8336 153.744 85.1178C153.687 85.4539 153.498 85.7538 153.219 85.9517C152.941 86.1496 152.594 86.2293 152.257 86.1735Z" fill="#F06EBD"/>
<path d="M146.503 95.3649C146.225 95.267 145.984 95.086 145.812 94.8467C145.641 94.6073 145.548 94.3211 145.546 94.0272C145.544 93.7333 145.633 93.4459 145.801 93.2042C145.969 92.9626 146.208 92.7783 146.485 92.6767C146.762 92.5751 147.064 92.561 147.349 92.6364C147.634 92.7117 147.889 92.8729 148.079 93.0978C148.269 93.3228 148.385 93.6006 148.411 93.8935C148.436 94.1863 148.371 94.4798 148.223 94.7341C148.152 94.8882 148.051 95.0268 147.926 95.142C147.801 95.2572 147.654 95.3467 147.495 95.4053C147.335 95.4639 147.165 95.4905 146.995 95.4836C146.825 95.4766 146.658 95.4363 146.503 95.3649Z" fill="#F06EBD"/>
<path d="M135.838 102.535C135.797 102.371 135.79 102.199 135.816 102.032C135.843 101.864 135.902 101.703 135.991 101.558C136.08 101.414 136.197 101.288 136.335 101.188C136.472 101.088 136.629 101.017 136.795 100.978C137.018 100.946 137.246 100.978 137.452 101.07C137.657 101.163 137.832 101.312 137.956 101.499C138.08 101.687 138.148 101.906 138.152 102.131C138.156 102.355 138.095 102.576 137.977 102.768C137.86 102.96 137.69 103.114 137.487 103.213C137.284 103.312 137.058 103.352 136.833 103.327C136.609 103.303 136.396 103.216 136.22 103.075C136.044 102.935 135.911 102.748 135.838 102.535Z" fill="#F06EBD"/>
<path d="M126.258 106.256C126.203 105.923 126.269 105.581 126.443 105.292C126.617 105.003 126.888 104.784 127.208 104.674C127.529 104.565 127.878 104.572 128.194 104.694C128.509 104.816 128.772 105.046 128.934 105.342C128.972 105.668 128.897 105.998 128.72 106.276C128.544 106.555 128.278 106.765 127.965 106.871C127.653 106.978 127.313 106.975 127.002 106.863C126.692 106.751 126.429 106.537 126.258 106.256Z" fill="#F06EBD"/>
<path d="M119.393 104.003C119.247 103.747 119.184 103.454 119.212 103.161C119.24 102.869 119.358 102.592 119.549 102.369C119.741 102.146 119.997 101.986 120.283 101.913C120.568 101.84 120.87 101.856 121.146 101.959C121.422 102.063 121.659 102.248 121.825 102.491C121.992 102.733 122.079 103.021 122.076 103.315C122.072 103.608 121.978 103.894 121.805 104.132C121.633 104.37 121.391 104.55 121.112 104.646C120.957 104.717 120.789 104.757 120.619 104.763C120.448 104.769 120.278 104.741 120.118 104.682C119.958 104.622 119.812 104.531 119.687 104.414C119.563 104.298 119.463 104.158 119.393 104.003Z" fill="#F06EBD"/>
<path d="M113.303 105.792C113.367 105.501 113.519 105.237 113.739 105.035C113.959 104.834 114.237 104.705 114.533 104.667C114.83 104.629 115.131 104.683 115.395 104.822C115.66 104.961 115.874 105.178 116.01 105.444C116.145 105.709 116.195 106.01 116.152 106.305C116.109 106.599 115.975 106.873 115.769 107.089C115.563 107.305 115.295 107.452 115.002 107.511C114.708 107.569 114.404 107.535 114.131 107.414C113.805 107.308 113.535 107.078 113.38 106.774C113.225 106.47 113.197 106.117 113.303 105.792Z" fill="#F06EBD"/>
<path d="M139.264 96.8968C139.035 96.7098 138.871 96.4571 138.792 96.1733C138.713 95.8894 138.725 95.5883 138.824 95.3111C138.924 95.0339 139.107 94.7942 139.349 94.6247C139.591 94.4552 139.88 94.3642 140.175 94.3642C140.471 94.3642 140.759 94.4552 141.001 94.6247C141.243 94.7942 141.426 95.0339 141.526 95.3111C141.626 95.5883 141.637 95.8894 141.559 96.1733C141.48 96.4571 141.315 96.7098 141.087 96.8968C140.844 97.1366 140.517 97.2712 140.175 97.2712C139.834 97.2712 139.506 97.1366 139.264 96.8968Z" fill="#F06EBD"/>
<path d="M129.283 101.57C129.179 101.295 129.163 100.995 129.236 100.711C129.309 100.427 129.468 100.172 129.692 99.9808C129.916 99.7898 130.193 99.6721 130.486 99.6435C130.78 99.615 131.075 99.6771 131.331 99.8213C131.588 99.9656 131.794 100.185 131.921 100.45C132.048 100.715 132.09 101.012 132.041 101.301C131.993 101.591 131.856 101.858 131.649 102.068C131.442 102.277 131.176 102.418 130.886 102.471C130.722 102.518 130.549 102.532 130.379 102.512C130.209 102.492 130.045 102.438 129.895 102.354C129.746 102.27 129.615 102.158 129.51 102.023C129.405 101.888 129.328 101.734 129.283 101.57Z" fill="#F06EBD"/>
<path d="M147.331 89.469C147.037 89.4458 146.757 89.333 146.53 89.1458C146.302 88.9587 146.138 88.7063 146.06 88.4231C145.982 88.1399 145.994 87.8396 146.093 87.5631C146.192 87.2865 146.375 87.0472 146.616 86.8777C146.857 86.7081 147.144 86.6166 147.439 86.6155C147.734 86.6145 148.022 86.704 148.264 86.8719C148.506 87.0397 148.69 87.2777 148.792 87.5536C148.893 87.8294 148.907 88.1296 148.831 88.4134C148.802 88.5811 148.741 88.7416 148.65 88.8856C148.56 89.0296 148.441 89.1543 148.302 89.2524C148.162 89.3506 148.005 89.4202 147.838 89.4574C147.671 89.4946 147.499 89.4985 147.331 89.469Z" fill="#F06EBD"/>
<path d="M150.11 80.3033C149.816 80.3311 149.521 80.2679 149.264 80.1223C149.007 79.9766 148.802 79.7557 148.676 79.4895C148.55 79.2234 148.51 78.9251 148.561 78.6353C148.612 78.3455 148.751 78.0784 148.96 77.8704C149.169 77.6624 149.437 77.5237 149.728 77.4731C150.019 77.4226 150.319 77.4627 150.586 77.588C150.853 77.7133 151.075 77.9177 151.221 78.1733C151.368 78.4289 151.431 78.7231 151.403 79.016C151.403 79.3574 151.267 79.6848 151.025 79.9263C150.782 80.1677 150.453 80.3033 150.11 80.3033Z" fill="#F06EBD"/>
<path d="M89.8645 109.422C89.8 109.71 89.6481 109.97 89.4294 110.168C89.2108 110.366 88.9361 110.492 88.643 110.528C88.3498 110.565 88.0524 110.511 87.7914 110.373C87.5304 110.235 87.3185 110.02 87.1847 109.758C87.0508 109.495 87.0016 109.198 87.0437 108.907C87.0858 108.616 87.2171 108.345 87.4198 108.13C87.6225 107.916 87.8865 107.77 88.176 107.711C88.4655 107.652 88.7662 107.683 89.0371 107.8C89.3627 107.906 89.6327 108.137 89.7879 108.441C89.943 108.745 89.9706 109.098 89.8645 109.422Z" fill="#F06EBD"/>
<path d="M94.8938 118.022C94.6183 118.129 94.3163 118.148 94.0292 118.077C93.7422 118.007 93.484 117.85 93.2901 117.627C93.0961 117.405 92.9758 117.129 92.9457 116.836C92.9156 116.543 92.977 116.248 93.1217 115.991C93.2664 115.734 93.4872 115.528 93.7539 115.401C94.0207 115.274 94.3203 115.232 94.6119 115.281C94.9035 115.33 95.1727 115.468 95.3829 115.675C95.593 115.882 95.7338 116.149 95.7859 116.438C95.8775 116.766 95.8351 117.117 95.6679 117.413C95.5008 117.71 95.2225 117.929 94.8938 118.022Z" fill="#F06EBD"/>
<path d="M93.5747 123.532C93.2995 123.638 92.9982 123.657 92.7118 123.586C92.4253 123.516 92.1677 123.359 91.974 123.137C91.7803 122.916 91.6598 122.64 91.6291 122.348C91.5984 122.056 91.6589 121.761 91.8024 121.504C91.9459 121.247 92.1653 121.041 92.4309 120.913C92.6965 120.785 92.9952 120.741 93.2865 120.789C93.5777 120.836 93.8473 120.971 94.0585 121.176C94.2697 121.381 94.4122 121.646 94.4667 121.935C94.514 122.098 94.5285 122.269 94.5092 122.438C94.4899 122.607 94.4372 122.77 94.3543 122.918C94.2714 123.067 94.1598 123.197 94.026 123.302C93.8922 123.408 93.7388 123.486 93.5747 123.532Z" fill="#F06EBD"/>
<path d="M92.9287 130.367C92.6439 130.288 92.3907 130.123 92.2036 129.895C92.0164 129.667 91.9046 129.387 91.8833 129.094C91.8621 128.8 91.9325 128.507 92.0849 128.255C92.2373 128.002 92.4642 127.803 92.7347 127.684C93.0052 127.565 93.306 127.532 93.5959 127.59C93.8859 127.647 94.1509 127.793 94.3546 128.006C94.5584 128.22 94.691 128.491 94.7343 128.782C94.7776 129.073 94.7294 129.371 94.5965 129.634C94.4723 129.95 94.2271 130.206 93.9146 130.343C93.6021 130.481 93.2477 130.489 92.9287 130.367Z" fill="#F06EBD"/>
<path d="M87.5889 130.766C87.3041 130.687 87.0508 130.522 86.8637 130.294C86.6766 130.066 86.5647 129.786 86.5435 129.493C86.5223 129.199 86.5927 128.906 86.7451 128.654C86.8975 128.401 87.1244 128.202 87.3949 128.083C87.6653 127.964 87.9661 127.931 88.2561 127.989C88.546 128.047 88.811 128.192 89.0148 128.405C89.2185 128.619 89.3511 128.89 89.3944 129.181C89.4377 129.472 89.3896 129.769 89.2566 130.032C89.1324 130.349 88.8873 130.604 88.5748 130.742C88.2623 130.879 87.9079 130.888 87.5889 130.766Z" fill="#F06EBD"/>
<path d="M84.6282 136.405C84.5169 136.072 84.5324 135.71 84.6719 135.388C84.8114 135.065 85.0651 134.805 85.3846 134.658C85.7042 134.51 86.0672 134.484 86.4046 134.585C86.7419 134.687 87.03 134.908 87.2139 135.208C87.3303 135.529 87.314 135.882 87.1685 136.191C87.0231 136.5 86.7604 136.739 86.4382 136.855C86.2906 136.948 86.1258 137.009 85.9538 137.037C85.7817 137.064 85.6058 137.056 85.4367 137.014C85.2677 136.972 85.1089 136.896 84.97 136.792C84.831 136.687 84.7148 136.555 84.6282 136.405Z" fill="#F06EBD"/>
<path d="M74.8034 138.748C74.7865 138.453 74.8609 138.16 75.0164 137.909C75.172 137.658 75.4012 137.46 75.6732 137.343C75.9451 137.225 76.2467 137.194 76.5372 137.253C76.8277 137.311 77.0931 137.458 77.2975 137.671C77.502 137.885 77.6356 138.156 77.6804 138.448C77.7251 138.74 77.6789 139.038 77.5479 139.303C77.4169 139.568 77.2075 139.786 76.9479 139.928C76.6882 140.071 76.391 140.131 76.0962 140.099C75.9208 140.1 75.7473 140.064 75.5861 139.996C75.4248 139.927 75.2794 139.826 75.1584 139.7C75.0375 139.573 74.9436 139.424 74.8826 139.26C74.8216 139.096 74.7946 138.922 74.8034 138.748Z" fill="#F06EBD"/>
<path d="M65.3917 128.822C65.5707 128.589 65.8176 128.416 66.0988 128.328C66.38 128.239 66.6817 128.239 66.963 128.327C67.2443 128.415 67.4914 128.588 67.6708 128.821C67.8502 129.054 67.9532 129.336 67.9656 129.63C67.9781 129.923 67.8995 130.213 67.7404 130.461C67.5814 130.708 67.3498 130.9 67.0769 131.012C66.8041 131.124 66.5034 131.149 66.2158 131.084C65.9281 131.019 65.6674 130.868 65.4692 130.65C65.3428 130.536 65.2405 130.398 65.1681 130.244C65.0957 130.089 65.0548 129.923 65.0475 129.753C65.0403 129.583 65.067 129.413 65.1261 129.253C65.1852 129.094 65.2754 128.947 65.3917 128.822Z" fill="#F06EBD"/>
<path d="M55.7853 118.151C56.0515 118.022 56.351 117.979 56.6428 118.026C56.9347 118.074 57.2047 118.21 57.4158 118.417C57.6269 118.623 57.7689 118.889 57.8223 119.179C57.8757 119.468 57.8379 119.767 57.7141 120.035C57.5903 120.302 57.3865 120.525 57.1306 120.673C56.8748 120.82 56.5793 120.886 56.2847 120.86C55.9901 120.834 55.7107 120.718 55.4848 120.528C55.2588 120.338 55.0974 120.083 55.0225 119.798C54.9054 119.479 54.9199 119.127 55.0628 118.818C55.2057 118.509 55.4654 118.269 55.7853 118.151Z" fill="#F06EBD"/>
<path d="M55.579 105.715C55.9167 105.659 56.2628 105.739 56.5416 105.937C56.8203 106.135 57.0088 106.434 57.0658 106.771C57.1349 106.93 57.1709 107.101 57.1716 107.275C57.1724 107.448 57.138 107.62 57.0704 107.78C57.0027 107.94 56.9033 108.085 56.7781 108.206C56.6529 108.326 56.5045 108.421 56.3418 108.483C56.0087 108.505 55.6783 108.41 55.4076 108.216C55.1368 108.021 54.9426 107.739 54.8584 107.417C54.7742 107.096 54.8053 106.755 54.9462 106.454C55.0872 106.152 55.3293 105.909 55.6308 105.766L55.579 105.715Z" fill="#F06EBD"/>
<path d="M10.2907 122.798C10.6283 122.742 10.9745 122.822 11.2532 123.02C11.5319 123.217 11.7204 123.517 11.7774 123.853C11.8374 124.012 11.8652 124.181 11.8593 124.351C11.8534 124.521 11.8138 124.687 11.7429 124.842C11.672 124.996 11.5712 125.135 11.4462 125.25C11.3212 125.366 11.1746 125.455 11.0146 125.514C10.8465 125.542 10.6746 125.536 10.5087 125.497C10.3428 125.458 10.1863 125.387 10.0481 125.288C9.90997 125.188 9.79287 125.063 9.70359 124.918C9.6143 124.774 9.5546 124.613 9.5279 124.446C9.41081 124.126 9.42528 123.774 9.56818 123.465C9.71108 123.156 9.9708 122.917 10.2907 122.798Z" fill="#F06EBD"/>
<path d="M12.3852 113.632C12.544 113.692 12.6893 113.783 12.8129 113.898C12.9365 114.014 13.036 114.153 13.1056 114.308C13.1752 114.462 13.2137 114.628 13.2187 114.797C13.2238 114.966 13.1953 115.135 13.135 115.293C13.1069 115.46 13.0457 115.621 12.9549 115.765C12.8641 115.909 12.7456 116.034 12.6062 116.132C12.4667 116.23 12.3092 116.299 12.1425 116.337C11.9759 116.374 11.8035 116.378 11.6354 116.348C11.4766 116.288 11.3313 116.198 11.2077 116.082C11.0841 115.966 10.9846 115.827 10.915 115.673C10.8454 115.518 10.8069 115.352 10.8018 115.183C10.7968 115.014 10.8252 114.846 10.8855 114.688C10.9137 114.52 10.9749 114.359 11.0657 114.215C11.1564 114.071 11.275 113.947 11.4144 113.849C11.5538 113.75 11.7114 113.681 11.8781 113.644C12.0447 113.606 12.217 113.602 12.3852 113.632Z" fill="#F06EBD"/>
<path d="M9.79984 108.586C9.9586 108.646 10.1039 108.736 10.2275 108.852C10.3511 108.968 10.4506 109.107 10.5202 109.261C10.5899 109.416 10.6283 109.582 10.6333 109.751C10.6384 109.92 10.61 110.088 10.5497 110.246C10.4897 110.58 10.2999 110.877 10.0215 111.072C9.74317 111.267 9.3987 111.345 9.06292 111.289C8.76678 111.141 8.53108 110.896 8.39583 110.595C8.26058 110.294 8.2341 109.956 8.32087 109.637C8.40763 109.319 8.60231 109.04 8.87188 108.849C9.14145 108.657 9.46932 108.564 9.79984 108.586Z" fill="#F06EBD"/>
<path d="M14.4279 106.062C14.7327 106.205 14.9774 106.451 15.1189 106.755C15.2605 107.06 15.2899 107.404 15.202 107.728C15.1141 108.052 14.9145 108.335 14.6383 108.527C14.362 108.719 14.0267 108.808 13.691 108.779C13.3861 108.636 13.1414 108.391 12.9999 108.086C12.8584 107.782 12.829 107.437 12.9169 107.113C13.0047 106.789 13.2043 106.507 13.4806 106.314C13.7568 106.122 14.0922 106.033 14.4279 106.062Z" fill="#F06EBD"/>
<path d="M14.0917 100.012C14.3966 100.155 14.6412 100.4 14.7827 100.705C14.9243 101.009 14.9537 101.354 14.8658 101.678C14.7779 102.002 14.5783 102.284 14.302 102.476C14.0258 102.669 13.6904 102.758 13.3548 102.728C13.0499 102.585 12.8053 102.34 12.6637 102.036C12.5222 101.731 12.4928 101.387 12.5807 101.063C12.6686 100.739 12.8681 100.456 13.1443 100.264C13.4206 100.072 13.756 99.9828 14.0917 100.012Z" fill="#F06EBD"/>
<path d="M19.612 99.008C19.8666 99.1567 20.0689 99.3798 20.1915 99.6471C20.314 99.9144 20.3508 100.213 20.2968 100.502C20.2429 100.791 20.1009 101.056 19.89 101.261C19.6792 101.467 19.4098 101.603 19.1186 101.651C18.8274 101.698 18.5286 101.655 18.2628 101.528C17.997 101.4 17.7771 101.194 17.6332 100.937C17.4893 100.681 17.4283 100.386 17.4585 100.094C17.4887 99.8019 17.6087 99.526 17.8021 99.3041C17.901 99.1658 18.0265 99.0485 18.1712 98.9587C18.3159 98.8689 18.477 98.8086 18.6452 98.781C18.8134 98.7535 18.9854 98.7594 19.1514 98.7984C19.3173 98.8373 19.4739 98.9086 19.612 99.008Z" fill="#F06EBD"/>
<path d="M20.853 93.0348C20.9742 93.1545 21.0704 93.2969 21.136 93.4537C21.2017 93.6106 21.2354 93.7789 21.2354 93.9488C21.2354 94.1188 21.2017 94.287 21.136 94.4439C21.0704 94.6008 20.9742 94.7432 20.853 94.8629C20.679 95.0057 20.4678 95.0962 20.244 95.1241C20.0202 95.1519 19.7931 95.1158 19.5892 95.02C19.3852 94.9242 19.2128 94.7726 19.0921 94.5829C18.9714 94.3933 18.9072 94.1734 18.9072 93.9488C18.9072 93.7243 18.9714 93.5044 19.0921 93.3147C19.2128 93.1251 19.3852 92.9735 19.5892 92.8777C19.7931 92.7819 20.0202 92.7458 20.244 92.7736C20.4678 92.8014 20.679 92.892 20.853 93.0348Z" fill="#F06EBD"/>
<path d="M26.6066 93.7428C26.7861 93.9755 26.8893 94.2577 26.9022 94.5508C26.915 94.844 26.8369 95.134 26.6785 95.3814C26.52 95.6288 26.2889 95.8217 26.0165 95.9338C25.7441 96.0458 25.4437 96.0717 25.1561 96.0078C24.8685 95.9439 24.6076 95.7934 24.4088 95.5767C24.2101 95.3601 24.0832 95.0877 24.0453 94.7967C24.0075 94.5057 24.0605 94.2101 24.1972 93.9502C24.334 93.6902 24.5478 93.4785 24.8096 93.3437C24.9535 93.2513 25.1145 93.1882 25.2831 93.1582C25.4518 93.1282 25.6247 93.1319 25.7919 93.169C25.9591 93.2061 26.1173 93.276 26.2571 93.3745C26.397 93.473 26.5158 93.5982 26.6066 93.7428Z" fill="#F06EBD"/>
<path d="M30.0454 88.5807C30.2263 88.8132 30.3307 89.0957 30.3444 89.3895C30.3581 89.6833 30.2804 89.9742 30.1219 90.2224C29.9634 90.4706 29.7318 90.6641 29.4588 90.7764C29.1857 90.8887 28.8846 90.9144 28.5963 90.8499C28.3081 90.7855 28.0469 90.634 27.8484 90.4162C27.6498 90.1984 27.5236 89.9249 27.4869 89.633C27.4503 89.3412 27.505 89.0451 27.6436 88.7854C27.7821 88.5256 27.9978 88.3148 28.2612 88.1816C28.4047 88.0912 28.5647 88.0297 28.732 88.0008C28.8993 87.9719 29.0706 87.9761 29.2363 88.0132C29.402 88.0502 29.5587 88.1194 29.6975 88.2168C29.8363 88.3142 29.9545 88.4378 30.0454 88.5807Z" fill="#F06EBD"/>
<path d="M35.0747 90.4601C35.0648 90.6293 35.0215 90.7948 34.9472 90.9473C34.8729 91.0997 34.7692 91.2361 34.6418 91.3485C34.5145 91.4609 34.3662 91.5472 34.2053 91.6024C34.0444 91.6576 33.8741 91.6807 33.7043 91.6702C33.5325 91.712 33.3535 91.7151 33.1803 91.6793C33.0071 91.6435 32.8442 91.5697 32.7033 91.4633C32.5624 91.3569 32.447 91.2205 32.3657 91.0641C32.2844 90.9077 32.2392 90.7352 32.2333 90.5592C32.2274 90.3831 32.261 90.208 32.3317 90.0466C32.4023 89.8851 32.5083 89.7414 32.6418 89.6259C32.7752 89.5103 32.9329 89.4259 33.1033 89.3787C33.2737 89.3315 33.4525 89.3227 33.6267 89.353C33.9661 89.3092 34.3091 89.4011 34.5805 89.6086C34.8519 89.8161 35.0296 90.1223 35.0747 90.4601Z" fill="#F06EBD"/>
<path d="M38.4878 87.0617C38.5383 87.3512 38.498 87.6492 38.3722 87.915C38.2465 88.1808 38.0415 88.4016 37.7852 88.5472C37.5289 88.6929 37.2338 88.7563 36.94 88.7288C36.6462 88.7014 36.368 88.5845 36.1434 88.3939C35.9187 88.2034 35.7586 87.9485 35.6847 87.664C35.6108 87.3796 35.6267 87.0793 35.7304 86.8042C35.834 86.5291 36.0203 86.2925 36.2639 86.1267C36.5075 85.9608 36.7965 85.8737 37.0916 85.8774C37.2614 85.8633 37.4325 85.8828 37.5948 85.9348C37.757 85.9868 37.9074 86.0702 38.0371 86.1803C38.1669 86.2904 38.2735 86.4249 38.3509 86.5762C38.4282 86.7274 38.4748 86.8924 38.4878 87.0617Z" fill="#F06EBD"/>
<path d="M43.4128 89.4175C43.4994 89.702 43.4955 90.0063 43.4017 90.2885C43.3079 90.5708 43.1288 90.8172 42.8889 90.9942C42.649 91.1711 42.36 91.2699 42.0615 91.277C41.763 91.2841 41.4696 91.1991 41.2215 91.0337C40.9734 90.8683 40.7827 90.6306 40.6756 90.3531C40.5684 90.0756 40.55 89.7719 40.6229 89.4836C40.6958 89.1953 40.8564 88.9365 41.0828 88.7426C41.3091 88.5487 41.5901 88.4292 41.8873 88.4005C42.0546 88.3668 42.2269 88.3665 42.3943 88.3994C42.5618 88.4324 42.721 88.498 42.8628 88.5926C43.0046 88.6871 43.1262 88.8087 43.2206 88.9503C43.315 89.0919 43.3804 89.2507 43.4128 89.4175Z" fill="#F06EBD"/>
<path d="M47.7051 85.8515C47.7916 86.1361 47.7878 86.4403 47.694 86.7225C47.6002 87.0048 47.421 87.2513 47.1811 87.4282C46.9412 87.6052 46.6522 87.7039 46.3537 87.711C46.0552 87.7181 45.7619 87.6331 45.5137 87.4677C45.2656 87.3023 45.075 87.0646 44.9678 86.7871C44.8607 86.5096 44.8423 86.2059 44.9152 85.9176C44.988 85.6293 45.1486 85.3705 45.375 85.1766C45.6013 84.9827 45.8824 84.8632 46.1795 84.8345C46.3468 84.8008 46.5191 84.8005 46.6866 84.8334C46.854 84.8664 47.0132 84.932 47.155 85.0266C47.2969 85.1211 47.4185 85.2427 47.5129 85.3843C47.6073 85.5259 47.6726 85.6847 47.7051 85.8515Z" fill="#F06EBD"/>
<path d="M51.9463 88.3747C52.0329 88.6593 52.029 88.9635 51.9352 89.2457C51.8414 89.528 51.6623 89.7745 51.4224 89.9514C51.1824 90.1284 50.8934 90.2272 50.5949 90.2342C50.2964 90.2413 50.0031 90.1563 49.755 89.9909C49.5069 89.8255 49.3162 89.5878 49.209 89.3103C49.1019 89.0328 49.0835 88.7291 49.1564 88.4408C49.2293 88.1525 49.3899 87.8937 49.6162 87.6998C49.8425 87.5059 50.1236 87.3864 50.4207 87.3577C50.588 87.324 50.7603 87.3237 50.9278 87.3566C51.0952 87.3896 51.2544 87.4553 51.3962 87.5498C51.5381 87.6443 51.6597 87.7659 51.7541 87.9075C51.8485 88.0491 51.9138 88.2079 51.9463 88.3747Z" fill="#F06EBD"/>
<path d="M8.01518 117.352C8.29454 117.248 8.59965 117.231 8.88869 117.306C9.17773 117.38 9.43657 117.542 9.6298 117.768C9.82303 117.995 9.94118 118.276 9.96808 118.572C9.99497 118.868 9.9293 119.165 9.78004 119.422C9.63078 119.68 9.40523 119.885 9.13429 120.01C8.86336 120.135 8.56031 120.173 8.26658 120.12C7.97285 120.067 7.70284 119.924 7.49352 119.712C7.2842 119.5 7.1458 119.229 7.09728 118.936C7.05239 118.772 7.04054 118.601 7.06244 118.432C7.08435 118.263 7.13958 118.101 7.22492 117.954C7.31025 117.806 7.42401 117.678 7.55964 117.574C7.69528 117.471 7.85011 117.396 8.01518 117.352Z" fill="#F06EBD"/>
<path d="M9.46347 128.333C9.79585 128.278 10.137 128.342 10.4272 128.512C10.7173 128.683 10.938 128.949 11.0505 129.266C11.163 129.582 11.1603 129.927 11.0427 130.242C10.9251 130.556 10.7001 130.819 10.4073 130.985C10.0749 131.04 9.73375 130.977 9.44359 130.806C9.15343 130.636 8.93275 130.369 8.82022 130.053C8.70768 129.736 8.71046 129.391 8.82807 129.077C8.94568 128.762 9.17061 128.499 9.46347 128.333Z" fill="#F06EBD"/>
<path d="M58.9274 114.031C59.1933 113.904 59.4922 113.861 59.7834 113.909C60.0746 113.957 60.3439 114.093 60.5546 114.298C60.7653 114.504 60.9072 114.769 60.9609 115.058C61.0147 115.347 60.9777 115.646 60.8549 115.913C60.7322 116.18 60.5297 116.403 60.275 116.552C60.0204 116.7 59.7259 116.767 59.4318 116.743C59.1377 116.719 58.8583 116.605 58.6315 116.417C58.4047 116.229 58.2417 115.975 58.1647 115.692C58.1047 115.533 58.0769 115.364 58.0828 115.194C58.0887 115.025 58.1283 114.858 58.1992 114.703C58.2701 114.549 58.3709 114.41 58.4959 114.295C58.6209 114.179 58.7675 114.09 58.9274 114.031Z" fill="#F06EBD"/>
<path d="M59.7155 125.977C59.8759 125.918 60.0465 125.891 60.2175 125.898C60.3884 125.904 60.5563 125.945 60.7114 126.017C60.8666 126.089 61.0058 126.19 61.1212 126.316C61.2365 126.442 61.3256 126.59 61.3833 126.75C61.5581 127.044 61.6086 127.394 61.5238 127.725C61.4389 128.056 61.2256 128.339 60.9308 128.514C60.5948 128.633 60.226 128.624 59.8964 128.488C59.5668 128.351 59.3001 128.098 59.1483 127.776C58.9964 127.454 58.9704 127.088 59.0753 126.748C59.1802 126.409 59.4085 126.12 59.7155 125.939V125.977Z" fill="#F06EBD"/>
<path d="M63.4781 134.718C63.6572 134.485 63.9041 134.312 64.1853 134.224C64.4664 134.135 64.7682 134.135 65.0494 134.223C65.3307 134.311 65.5779 134.484 65.7573 134.717C65.9367 134.95 66.0396 135.232 66.052 135.526C66.0645 135.819 65.9859 136.109 65.8268 136.357C65.6678 136.604 65.4362 136.796 65.1634 136.908C64.8905 137.019 64.5899 137.045 64.3022 136.98C64.0145 136.915 63.7538 136.764 63.5556 136.546C63.4293 136.432 63.3269 136.294 63.2545 136.139C63.1822 135.985 63.1412 135.818 63.134 135.648C63.1268 135.479 63.1535 135.309 63.2125 135.149C63.2716 134.989 63.3618 134.843 63.4781 134.718Z" fill="#F06EBD"/>
<path d="M69.2693 135.375C69.2549 135.084 69.3303 134.795 69.4854 134.548C69.6405 134.3 69.8679 134.106 70.137 133.991C70.4061 133.876 70.7041 133.846 70.991 133.905C71.2778 133.963 71.5398 134.108 71.7418 134.319C71.9437 134.53 72.076 134.798 72.1208 135.086C72.1656 135.374 72.1208 135.669 71.9924 135.931C71.864 136.193 71.6581 136.41 71.4024 136.552C71.1468 136.694 70.8536 136.755 70.5622 136.727C70.3868 136.727 70.2132 136.692 70.052 136.623C69.8908 136.554 69.7453 136.454 69.6243 136.327C69.5034 136.201 69.4096 136.051 69.3485 135.887C69.2875 135.724 69.2606 135.549 69.2693 135.375Z" fill="#F06EBD"/>
<path d="M78.0096 135.401C77.9164 135.072 77.9434 134.721 78.0858 134.41C78.2282 134.1 78.4767 133.849 78.7871 133.704C79.0976 133.559 79.4497 133.528 79.7808 133.617C80.1119 133.706 80.4006 133.909 80.5952 134.191C80.6884 134.519 80.6614 134.87 80.519 135.181C80.3766 135.492 80.1281 135.742 79.8176 135.887C79.5072 136.033 79.1551 136.063 78.8239 135.974C78.4928 135.885 78.2042 135.682 78.0096 135.401Z" fill="#F06EBD"/>
<path d="M84.2021 111.186C84.1754 111.354 84.1157 111.514 84.0264 111.659C83.9371 111.803 83.82 111.929 83.6818 112.028C83.5437 112.128 83.3871 112.199 83.2213 112.237C83.0554 112.276 82.8835 112.282 82.7153 112.255C82.5408 112.278 82.3633 112.262 82.1957 112.208C82.0281 112.155 81.8745 112.065 81.746 111.945C81.6176 111.825 81.5174 111.678 81.4528 111.515C81.3882 111.352 81.3608 111.177 81.3725 111.002C81.3842 110.827 81.4348 110.657 81.5205 110.504C81.6063 110.35 81.7251 110.218 81.8684 110.116C82.0118 110.015 82.1759 109.946 82.3492 109.915C82.5225 109.884 82.7005 109.892 82.8705 109.937C83.0402 109.932 83.2094 109.961 83.3682 110.02C83.5271 110.08 83.6725 110.171 83.7962 110.287C83.9198 110.403 84.0193 110.542 84.089 110.696C84.1586 110.851 84.197 111.017 84.2021 111.186Z" fill="#F06EBD"/>
<path d="M90.8726 116.786C90.6839 117.012 90.4299 117.174 90.1452 117.251C89.8605 117.328 89.5589 117.316 89.2815 117.216C89.0041 117.116 88.7643 116.933 88.5948 116.693C88.4254 116.452 88.3345 116.166 88.3345 115.872C88.3345 115.578 88.4254 115.292 88.5948 115.051C88.7643 114.811 89.0041 114.628 89.2815 114.528C89.5589 114.428 89.8605 114.416 90.1452 114.493C90.4299 114.57 90.6839 114.732 90.8726 114.958C90.9938 115.078 91.09 115.22 91.1556 115.377C91.2212 115.534 91.255 115.702 91.255 115.872C91.255 116.042 91.2212 116.21 91.1556 116.367C91.09 116.524 90.9938 116.666 90.8726 116.786Z" fill="#F06EBD"/>
<path d="M147.305 59.8477C147.179 60.1138 146.974 60.3347 146.717 60.4803C146.46 60.6258 146.165 60.6889 145.87 60.661C145.576 60.633 145.298 60.5154 145.074 60.3241C144.849 60.1328 144.69 59.8772 144.616 59.5922C144.543 59.3072 144.56 59.0066 144.665 58.7316C144.77 58.4565 144.957 58.2205 145.202 58.0555C145.447 57.8905 145.736 57.8047 146.032 57.8098C146.327 57.8149 146.614 57.9107 146.852 58.084C147.147 58.2582 147.361 58.5418 147.445 58.8725C147.53 59.2033 147.48 59.554 147.305 59.8477Z" fill="#F06EBD"/>
<path d="M150.175 56.6809C149.949 56.9367 149.63 57.0925 149.288 57.1142C148.946 57.136 148.61 57.0218 148.352 56.7968C148.197 56.6334 148.091 56.4293 148.048 56.2083C148.005 55.9873 148.025 55.7586 148.108 55.549C148.191 55.3394 148.332 55.1576 148.514 55.0249C148.697 54.8922 148.914 54.8141 149.14 54.7997C149.365 54.7854 149.59 54.8354 149.788 54.9439C149.987 55.0524 150.15 55.2149 150.258 55.4123C150.367 55.6098 150.417 55.8339 150.402 56.0586C150.388 56.2833 150.309 56.4992 150.175 56.6809Z" fill="#F06EBD"/>
<path d="M64.37 36.3025C65.4301 40.3189 64.5122 44.0264 62.3015 44.6314C60.0907 45.2365 57.4404 42.4301 56.3803 38.4008C55.3202 34.3715 56.2381 30.6769 58.4359 30.0718C60.6337 29.4668 63.297 32.2731 64.37 36.3025Z" fill="black"/>
<path d="M86.7875 31.5652C87.8476 35.5945 86.9297 39.2891 84.719 39.9071C82.5082 40.525 79.8579 37.6929 78.7978 33.6764C77.7377 29.66 78.6556 25.9525 80.8534 25.3346C83.0512 24.7166 85.7144 27.5487 86.7875 31.5652Z" fill="black"/>
</svg>
